<svg width="50" height="50" viewBox="0 0 50 50" fill="none" xmlns="http://www.w3.org/2000/svg">
<g clip-path="url(#clip0_61_1392)">
<mask id="mask0_61_1392" style="mask-type:luminance" maskUnits="userSpaceOnUse" x="0" y="0" width="50" height="50">
<path d="M50 0H0V50H50V0Z" fill="white"/>
</mask>
<g mask="url(#mask0_61_1392)">
<path d="M25 1.56641C12.0559 1.56641 1.5625 12.0597 1.5625 25.004C1.5625 37.9482 12.0559 48.4415 25 48.4415C37.9442 48.4415 48.4375 37.948 48.4375 25.004C48.4375 12.0598 37.9442 1.56641 25 1.56641ZM39.3631 39.3669C35.8015 42.9178 31.0454 45.0155 26.0219 45.2511C20.9981 45.4867 16.0667 43.8436 12.1883 40.6419C8.30992 37.4403 5.76248 32.9092 5.04233 27.9319C4.32221 22.9544 5.48098 17.8873 8.29285 13.7176C11.1047 9.5479 15.3683 6.57446 20.2528 5.37663C25.1373 4.17882 30.2927 4.8424 34.7146 7.23811C39.1367 9.63384 42.5081 13.59 44.1725 18.3359C45.8369 23.0817 45.6746 28.2771 43.7175 32.91C42.6975 35.3238 41.2187 37.5167 39.3631 39.3669Z" fill="white"/>
<path d="M26.6225 16.112L24.4127 13.9023L13.3111 25.004L24.4127 36.1057L26.6225 33.8959L19.2931 26.5665H37.5977V23.4415H19.2931L26.6225 16.112Z" fill="white"/>
</g>
</g>
<defs>
<clipPath id="clip0_61_1392">
<rect width="50" height="50" fill="white"/>
</clipPath>
</defs>
</svg>
